{"title":"Gotham S02E02 1080p Web-DL DD5.1 H.265 [EN,NL,FR][Kyle-E]","uid":14224472,"size":873141507,"categoryP":"video","categoryS":"hd___tv_shows","magnet":"?xt=urn:btih:063dc45c6c0adbb79a76922d4cb7f7d202551b6f&amp;dn=Gotham+S02E02+1080p+Web-DL+DD5.1+H.265+%5BEN%2CNL%2CFR%5D%5BKyle-E%5D&amp;tr=udp%3A%2F%2Ftracker.leechers-paradise.org%3A6969&amp;tr=udp%3A%2F%2Fzer0day.ch%3A1337&amp;tr=udp%3A%2F%2Fopen.demonii.com%3A1337&amp;tr=udp%3A%2F%2Ftracker.coppersurfer.tk%3A6969&amp;tr=udp%3A%2F%2Fexodus.desync.com%3A6969","seeders":0,"leechers":1,"uploader":"Kyle-E","files":3,"time":1460069962,"description":"Recommended media player: VLC or MPC-HC (with K-lite codec pack installed)\r\n\r\n\r\n Gotham S02E02 1080p Web-DL DD5.1 H.265 [EN,NL,FR] [Kyle-E]\r\n ========================================================================\r\n TV-14 | 42min | Crime, Drama, Mystery | TV Series (2014– )\r\n ========================================================================\r\n Gordon investigates the inmate escape from Arkham Asylum while Galavan \r\n plots his next move. Bruce's quest to unlock the secrets of his father's \r\n office leads him to an old family friend. \r\n ========================================================================\r\n IMDb: http://www.imdb.com/title/tt3749900/\r\n\r\n\r\nAudio: AC3 5.1 384 Kbps\r\nVideo: 1916x1076p HEVC x265 2254 Kbps\r\nSubtitles: English, English (Hearing Impaired), Dutch, French\r\n\r\nMediaInfo:\r\nGeneral\r\nFormat                                   : Matroska\r\nFile size                                : 833 MiB\r\nDuration                                 : 44mn 4s\r\nOverall bit rate                         : 2 641 Kbps\r\nCover                                    : Yes\r\nAttachments                              : cover.jpg\r\n\r\nVideo\r\nID                                       : 1\r\nFormat                                   : HEVC\r\nFormat profile                           :   @Main\r\nBit rate                                 : 2 254 Kbps\r\nWidth                                    : 1 916 pixels\r\nHeight                                   : 1 076 pixels\r\nBit depth                                : 8 bits\r\nStream size                              : 711 MiB (85%)\r\nWriting library                          : x265 1.7+497-975352b2c022:[Windows][GCC 5.2.0][64 bit] 8bit+10bit+12bit\r\nEncoding settings                        : wpp / ctu=64 / min-cu-size=8 / max-tu-size=32 / tu-intra-depth=2 / tu-inter-depth=2 / me=3 / subme=3 / merange=57 / rect / amp / max-merge=3 / temporal-mvp / no-early-skip / rdpenalty=0 / no-tskip / no-tskip-fast / strong-intra-smoothing / no-lossless / no-cu-lossless / no-constrained-intra / no-fast-intra / open-gop / no-temporal-layers / interlace=0 / keyint=250 / min-keyint=23 / scenecut=40 / rc-lookahead=30 / lookahead-slices=0 / bframes=8 / bframe-bias=0 / b-adapt=2 / ref=3 / limit-refs=0 / weightp / weightb / aq-mode=1 / qg-size=32 / aq-strength=1.00 / cbqpoffs=0 / crqpoffs=0 / rd=6 / psy-rd=0.30 / rdoq-level=2 / psy-rdoq=1.00 / signhide / deblock / sao / no-sao-non-deblock / b-pyramid / cutree / rc=crf / crf=19.0 / qcomp=0.60 / qpmin=0 / qpmax=51 / qpstep=4 / ipratio=1.40 / pbratio=1.30\r\n\r\nAudio\r\nID                                       : 2\r\nFormat                                   : AC-3\r\nMode extension                           : CM (complete main)\r\nFormat settings, Endianness              : Big\r\nDuration                                 : 44mn 4s\r\nBit rate mode                            : Constant\r\nBit rate                                 : 384 Kbps\r\nChannel(s)                               : 6 channels\r\nChannel positions                        : Front: L C R, Side: L R, LFE\r\nCompression mode                         : Lossy\r\nStream size                              : 121 MiB (15%)\r\n\r\nText #1\r\nID                                       : 3\r\nCodec ID/Info                            : UTF-8 Plain Text\r\nTitle                                    : English\r\nLanguage                                 : English\r\nDefault                                  : Yes\r\nForced                                   : No\r\n\r\nText #2\r\nID                                       : 4\r\nCodec ID/Info                            : UTF-8 Plain Text\r\nTitle                                    : English (Hearing Impaired)\r\nLanguage                                 : English\r\nDefault                                  : No\r\nForced                                   : No\r\n\r\nText #3\r\nID                                       : 5\r\nCodec ID/Info                            : UTF-8 Plain Text\r\nTitle                                    : Dutch\r\nLanguage                                 : Dutch\r\nDefault                                  : No\r\nForced                                   : No\r\n\r\nText #4\r\nID                                       : 6\r\nCodec ID/Info                            : UTF-8 Plain Text\r\nTitle                                    : French\r\nLanguage                                 : French\r\nDefault                                  : No\r\nForced                                   : No","torrent":{"xt":"urn:btih:063dc45c6c0adbb79a76922d4cb7f7d202551b6f","amp;dn":"Gotham+S02E02+1080p+Web-DL+DD5.1+H.265+%5BEN%2CNL%2CFR%5D%5BKyle-E%5D","amp;tr":["udp%3A%2F%2Ftracker.leechers-paradise.org%3A6969","udp%3A%2F%2Fzer0day.ch%3A1337","udp%3A%2F%2Fopen.demonii.com%3A1337","udp%3A%2F%2Ftracker.coppersurfer.tk%3A6969","udp%3A%2F%2Fexodus.desync.com%3A6969"],"infoHash":"063dc45c6c0adbb79a76922d4cb7f7d202551b6f","infoHashBuffer":{"type":"Buffer","data":[6,61,196,92,108,10,219,183,154,118,146,45,76,183,247,210,2,85,27,111]},"announce":[],"urlList":[]}}